<?xml version="1.0" encoding="UTF-8"?>
<!DOCTYPE svg PUBLIC "-//W3C//DTD SVG 1.1//EN" "http://www.w3.org/Graphics/SVG/1.1/DTD/svg11.dtd">
<!-- Creator: CorelDRAW 2019 (64-Bit) -->
<svg xmlns="http://www.w3.org/2000/svg" xml:space="preserve" width="12mm" height="12mm" version="1.1" style="shape-rendering:geometricPrecision; text-rendering:geometricPrecision; image-rendering:optimizeQuality; fill-rule:evenodd; clip-rule:evenodd"
viewBox="0 0 1200 1200"
 xmlns:xlink="http://www.w3.org/1999/xlink"
 xmlns:xodm="http://www.corel.com/coreldraw/odm/2003">
 <defs>
  <style type="text/css">
   <![CDATA[
    .fil0 {fill:#FEFEFE}
   ]]>
  </style>
 </defs>
 <g id="Capa_x0020_1">
  <metadata id="CorelCorpID_0Corel-Layer"/>
  <path class="fil0" d="M-0 133.33c0,-73.64 59.7,-133.33 133.33,-133.33l933.34 0c73.64,0 133.33,59.7 133.33,133.33l0 933.33c0,73.64 -59.7,133.33 -133.33,133.33l-933.34 0.01c-73.64,0 -133.33,-59.7 -133.33,-133.33l0 -933.34zm506.1 598.84l-151.83 0 -28.87 94.87 -92.06 0 156.46 -460.38 80.23 0 157.31 460.34 -92.07 0 -29.17 -94.83zm-128.44 -76.84l105.07 0 -52.8 -172.33 -52.27 172.33zm427.2 178.01c-24.26,0 -45.97,-4.34 -65.09,-12.97 -19.17,-8.63 -35.4,-20.47 -48.8,-35.44 -13.4,-14.96 -23.57,-32.5 -30.6,-52.63 -7,-20.14 -10.53,-41.67 -10.53,-64.67l0 -12.34c0,-25.92 3.44,-49.7 10.27,-71.29 6.8,-21.61 16.53,-40.2 29.16,-55.8 12.56,-15.6 27.91,-27.77 45.87,-36.53 18.01,-8.73 38.16,-13.13 60.48,-13.13 22.5,0 42.33,4.07 59.46,12.17 17.13,8.1 31.5,19.5 43.16,34.17 11.63,14.63 20.4,32.3 26.27,52.96 5.87,20.66 8.82,43.67 8.82,68.96l0 38.91 -198.87 -0.02c1.34,11.17 4.1,21.31 8.24,30.34 4.13,9.07 9.44,16.81 15.86,23.23 6.43,6.43 14,11.44 22.64,15.03 8.67,3.61 18.41,5.37 29.17,5.37 15.2,0 29.26,-3.1 42.13,-9.34 12.9,-6.19 23.96,-15.86 33.19,-28.93l41 50.26c-5,7.8 -11.26,15.4 -18.77,22.77 -7.5,7.37 -16.37,13.97 -26.57,19.77 -10.21,5.79 -21.67,10.43 -34.5,13.89 -12.78,3.52 -26.76,5.26 -41.99,5.26zm-9.5 -280.77c-9.07,0 -16.97,1.74 -23.83,5.23 -6.83,3.46 -12.7,8.32 -17.6,14.53 -4.9,6.2 -8.9,13.64 -11.97,22.3 -3.06,8.63 -5.27,18.23 -6.6,28.77l116.04 0 0 -7.27c-0.2,-9.07 -1.4,-17.5 -3.63,-25.3 -2.2,-7.8 -5.57,-14.54 -10.1,-20.23 -4.54,-5.7 -10.31,-10.11 -17.3,-13.27 -7.1,-3.16 -15.41,-4.76 -25.01,-4.76z"/>
 </g>
</svg>
