<?xml version="1.0" encoding="UTF-8"?>
<!DOCTYPE svg PUBLIC "-//W3C//DTD SVG 1.1//EN" "http://www.w3.org/Graphics/SVG/1.1/DTD/svg11.dtd">
<!-- Creator: CorelDRAW 2019 (64-Bit) -->
<svg xmlns="http://www.w3.org/2000/svg" xml:space="preserve" width="12mm" height="12mm" version="1.1" style="shape-rendering:geometricPrecision; text-rendering:geometricPrecision; image-rendering:optimizeQuality; fill-rule:evenodd; clip-rule:evenodd"
viewBox="0 0 1200 1200"
 xmlns:xlink="http://www.w3.org/1999/xlink"
 xmlns:xodm="http://www.corel.com/coreldraw/odm/2003">
 <defs>
  <style type="text/css">
   <![CDATA[
    .fil0 {fill:#FEFEFE}
   ]]>
  </style>
 </defs>
 <g id="Capa_x0020_1">
  <metadata id="CorelCorpID_0Corel-Layer"/>
  <path class="fil0" d="M109.09 0l981.82 0c60.27,0 109.09,48.82 109.09,109.09l0 981.82c0,60.27 -48.82,109.09 -109.09,109.09l-981.82 0c-60.27,0 -109.09,-48.82 -109.09,-109.09l0 -981.82c0,-60.27 48.82,-109.09 109.09,-109.09zm484.28 811.96c-1.71,36.29 -11.29,70.52 -31.01,101.15 -19.55,30.36 -46.78,52.67 -79.36,68.07 -36.26,17.14 -75.65,24.01 -115.57,24.01 -66.01,0 -125.11,-20.05 -169.59,-70.39 -47.67,-53.95 -61.82,-126.6 -61.82,-196.65l0 -26.19c0,-47.72 7.63,-95.58 27.83,-139.11 17.97,-38.71 44.36,-70.53 80.58,-93.22 36.85,-23.08 78.24,-32.84 121.51,-32.84 58.23,0 114.69,13.66 159.48,52.48 43.34,37.55 63.84,87.91 68.92,144.42 0.18,2.03 -0.43,3.85 -1.8,5.35 -1.38,1.51 -3.13,2.28 -5.17,2.28l-127.22 0c-3.78,0 -6.88,-3.01 -7,-6.79 -0.67,-22.09 -4.97,-48.93 -22.08,-64.7 -16.95,-15.64 -43,-19.25 -65.13,-19.25 -26.97,0 -49.3,8.98 -63.81,32.33 -18.26,29.36 -21.8,76.78 -22.28,110.36l0 37.49c0,34.6 2.45,87.1 20.39,117.73 14.55,24.84 39.47,32.9 67.19,32.9 21.79,0 45.8,-3.95 62.61,-18.94 16.94,-15.11 21.65,-39.38 22.36,-61.05 0.13,-3.77 3.23,-6.77 7,-6.77l126.98 0c1.99,0 3.69,0.73 5.07,2.17 1.37,1.44 2.02,3.18 1.92,5.16zm215.63 8.22l98.62 -360.79c0.84,-3.08 3.55,-5.15 6.75,-5.15l142.61 0c2.33,0 4.33,1.03 5.68,2.92 1.36,1.88 1.7,4.11 0.95,6.31l-178.24 529.5c-0.97,2.9 -3.57,4.77 -6.63,4.77l-139.63 0c-3.06,0 -5.67,-1.88 -6.64,-4.78l-176.75 -529.5c-0.74,-2.21 -0.4,-4.43 0.96,-6.31 1.36,-1.89 3.36,-2.91 5.68,-2.91l141.5 0c3.2,0 5.91,2.07 6.75,5.16l98.39 360.78z"/>
 </g>
</svg>
