<?xml version="1.0" encoding="UTF-8"?>
<!DOCTYPE svg PUBLIC "-//W3C//DTD SVG 1.1//EN" "http://www.w3.org/Graphics/SVG/1.1/DTD/svg11.dtd">
<!-- Creator: CorelDRAW -->
<svg xmlns="http://www.w3.org/2000/svg" xml:space="preserve" width="8.343mm" height="12mm" version="1.1" style="shape-rendering:geometricPrecision; text-rendering:geometricPrecision; image-rendering:optimizeQuality; fill-rule:evenodd; clip-rule:evenodd"
viewBox="0 0 834.3 1200"
 xmlns:xlink="http://www.w3.org/1999/xlink"
 xmlns:xodm="http://www.corel.com/coreldraw/odm/2003">
 <defs>
  <style type="text/css">
   <![CDATA[
    .fil0 {fill:#FEFEFE;fill-rule:nonzero}
   ]]>
  </style>
 </defs>
 <g id="Capa_x0020_1">
  <metadata id="CorelCorpID_0Corel-Layer"/>
  <g id="_2090341145584">
   <g id="Group">
    <g id="Rectangle_555F2">
     <path class="fil0" d="M725.6 412.8c61.13,-40.18 101.56,-109.34 101.56,-187.76 0,-123.8 -100.73,-224.51 -224.53,-224.51l-385.22 0c-123.8,0 -224.53,100.71 -224.53,224.51 0,78.42 40.43,147.58 101.55,187.76 -61.12,40.14 -101.55,109.31 -101.55,187.73 0,78.42 40.43,147.59 101.55,187.76 -61.12,40.12 -101.55,109.31 -101.55,187.73 0,123.8 101.27,224.51 225.73,224.51 125.81,0 228.18,-101.81 228.18,-226.95l0 -207.04c39.89,36.35 92.89,58.5 150.96,58.5l4.88 0c123.8,0 224.53,-100.71 224.53,-224.51 0,-78.42 -40.43,-147.59 -101.56,-187.73zm-278.81 -338.72l155.84 0c83.25,0 150.98,67.71 150.98,150.96 0,83.25 -67.73,150.98 -150.98,150.98l-155.84 0 0 -301.94zm-380.36 150.96c0,-83.25 67.73,-150.96 150.98,-150.96l155.84 0 0 301.94 -155.84 0c-83.25,0 -150.98,-67.73 -150.98,-150.98zm0 375.49c0,-83.25 67.73,-150.96 150.98,-150.96l155.84 0 0 301.95 -156.8 0c-82.81,-0.52 -150.02,-68.07 -150.02,-150.99zm306.82 373.05c0,84.59 -69.38,153.4 -154.64,153.4 -83.91,0 -152.18,-67.71 -152.18,-150.96 0,-83.25 67.73,-150.98 150.98,-150.98l155.84 0 0 148.54zm229.38 -222.06l-4.88 0c-83.25,0 -150.96,-67.74 -150.96,-150.99 0,-83.25 67.71,-150.96 150.96,-150.96l4.88 0c83.25,0 150.98,67.71 150.98,150.96 0,83.25 -67.73,150.99 -150.98,150.99z"/>
    </g>
    <g id="Rectangle_555F4">
     <path class="fil0" d="M217.41 751.49c-0.33,0 -0.63,0 -0.96,0.02l156.8 0.01 0 -0.03 -155.84 0z"/>
    </g>
   </g>
  </g>
 </g>
</svg>
