<?xml version="1.0" encoding="UTF-8"?>
<!DOCTYPE svg PUBLIC "-//W3C//DTD SVG 1.1//EN" "http://www.w3.org/Graphics/SVG/1.1/DTD/svg11.dtd">
<!-- Creator: CorelDRAW 2019 (64-Bit) -->
<svg xmlns="http://www.w3.org/2000/svg" xml:space="preserve" width="12.171mm" height="11.983mm" version="1.1" style="shape-rendering:geometricPrecision; text-rendering:geometricPrecision; image-rendering:optimizeQuality; fill-rule:evenodd; clip-rule:evenodd"
viewBox="0 0 1217.1 1198.3"
 xmlns:xlink="http://www.w3.org/1999/xlink"
 xmlns:xodm="http://www.corel.com/coreldraw/odm/2003">
 <defs>
  <style type="text/css">
   <![CDATA[
    .fil0 {fill:#FEFEFE;fill-rule:nonzero}
   ]]>
  </style>
 </defs>
 <g id="Capa_x0020_1">
  <metadata id="CorelCorpID_0Corel-Layer"/>
  <path class="fil0" d="M608.55 -4.91c-336.07,0 -608.55,272.47 -608.55,608.54 0,285.17 196.37,523.76 461.08,589.79 -2.84,-8.23 -4.68,-17.75 -4.68,-29.56l0 -104.02c-24.7,0 -66.08,0 -76.47,0 -41.63,0 -78.66,-17.9 -96.6,-51.17 -19.94,-36.98 -23.39,-93.52 -72.78,-128.1 -14.66,-11.52 -3.51,-24.64 13.4,-22.86 31.18,8.81 57.06,30.22 81.4,61.96 24.24,31.8 35.65,39.01 80.94,39.01 21.97,0 54.82,-1.27 85.75,-6.13 16.64,-42.25 45.39,-81.14 80.54,-99.5 -202.65,-20.83 -299.35,-121.65 -299.35,-258.52 0,-58.92 25.11,-115.92 67.76,-163.95 -14.03,-47.69 -31.63,-144.91 5.35,-181.94 91.17,0 146.3,59.13 159.54,75.1 45.43,-15.56 95.34,-24.38 147.78,-24.38 52.54,0 102.64,8.82 148.18,24.49 13.07,-15.87 68.25,-75.21 159.64,-75.21 37.13,37.07 19.32,134.69 5.17,182.26 42.4,47.92 67.36,104.77 67.36,163.59 0,136.77 -96.57,237.53 -298.91,258.48 55.68,29.08 96.29,110.71 96.29,172.24l0 138.65c0,5.27 -1.17,9.09 -1.78,13.59 237.15,-83.13 407.49,-308.28 407.49,-573.82 0,-336.07 -272.48,-608.54 -608.55,-608.54z"/>
 </g>
</svg>
