<?xml version="1.0" encoding="UTF-8"?>
<!DOCTYPE svg PUBLIC "-//W3C//DTD SVG 1.1//EN" "http://www.w3.org/Graphics/SVG/1.1/DTD/svg11.dtd">
<!-- Creator: CorelDRAW 2019 (64-Bit) -->
<svg xmlns="http://www.w3.org/2000/svg" xml:space="preserve" width="10.867mm" height="12.171mm" version="1.1" style="shape-rendering:geometricPrecision; text-rendering:geometricPrecision; image-rendering:optimizeQuality; fill-rule:evenodd; clip-rule:evenodd"
viewBox="0 0 1086.7 1217.1"
 xmlns:xlink="http://www.w3.org/1999/xlink"
 xmlns:xodm="http://www.corel.com/coreldraw/odm/2003">
 <defs>
  <style type="text/css">
   <![CDATA[
    .fil0 {fill:#FEFEFE;fill-rule:nonzero}
   ]]>
  </style>
 </defs>
 <g id="Capa_x0020_1">
  <metadata id="CorelCorpID_0Corel-Layer"/>
  <path class="fil0" d="M1079.75 8.59c-4.96,-5.48 -12.09,-8.58 -19.53,-8.58l-1033.74 0c-7.44,0 -14.57,3.1 -19.53,8.58 -5.07,5.47 -7.55,12.81 -6.82,20.25l93.12 1043.14c0.93,10.96 8.58,20.05 19.12,23.16l423.64 120.92c2.28,0.72 4.76,1.03 7.24,1.03 2.48,0 4.85,-0.31 7.23,-1.03l423.95 -120.92c10.55,-3.11 18.09,-12.2 19.13,-23.16l93.01 -1043.14c0.73,-7.44 -1.75,-14.78 -6.82,-20.25zm-222.93 359.66l-497.75 0 11.89 134.67 473.87 0 -35.55 398.02 -266.14 80.4 -2.58 -0.82 -263.03 -79.69 -14.37 -162.16 128.88 0 5.58 62.94 147.07 30.8 144.39 -30.8 15.4 -170.32 -450.93 0 -35.04 -391.71 649.78 0 -11.47 128.67z"/>
 </g>
</svg>
