<?xml version="1.0" encoding="UTF-8"?>
<!DOCTYPE svg PUBLIC "-//W3C//DTD SVG 1.1//EN" "http://www.w3.org/Graphics/SVG/1.1/DTD/svg11.dtd">
<!-- Creator: CorelDRAW 2019 (64-Bit) -->
<svg xmlns="http://www.w3.org/2000/svg" xml:space="preserve" width="12mm" height="12mm" version="1.1" style="shape-rendering:geometricPrecision; text-rendering:geometricPrecision; image-rendering:optimizeQuality; fill-rule:evenodd; clip-rule:evenodd"
viewBox="0 0 1200 1200"
 xmlns:xlink="http://www.w3.org/1999/xlink"
 xmlns:xodm="http://www.corel.com/coreldraw/odm/2003">
 <defs>
  <style type="text/css">
   <![CDATA[
    .fil0 {fill:#FEFEFE}
   ]]>
  </style>
 </defs>
 <g id="Capa_x0020_1">
  <metadata id="CorelCorpID_0Corel-Layer"/>
  <path class="fil0" d="M1200 1033.34c0,92.06 -74.6,166.66 -166.66,166.66l-866.68 0c-92.03,0 -166.66,-74.6 -166.66,-166.66l0 -866.68c0,-92.06 74.63,-166.66 166.66,-166.66l866.68 0c92.06,0 166.66,74.6 166.66,166.66l0 866.68zm-598.8 -322.27l-179.63 0 -36.7 113.46c-0.97,4.33 -4.84,7.23 -9.17,6.76l-90.8 0c-5.3,0 -6.76,-2.89 -5.3,-8.7l155.5 -447.67c1.44,-4.84 2.9,-10.13 4.84,-15.94 1.92,-10.13 2.89,-20.76 2.89,-31.4 -0.46,-2.4 1.44,-4.83 3.87,-5.3l1.44 0.03 123.63 0c3.86,0 5.79,1.43 6.26,3.86l176.26 497.4c1.44,5.31 0,7.74 -4.83,7.74l-100.93 -0.02c-3.36,0.47 -6.77,-1.92 -7.74,-5.3l-39.59 -114.92 0 0zm-151.64 -98.03l122.67 0c-2.89,-10.13 -6.76,-22.2 -11.1,-34.77 -4.33,-13.04 -8.7,-27.04 -13.04,-41.54 -4.83,-14.97 -9.17,-29.47 -13.99,-44.43 -4.84,-14.97 -9.17,-28.97 -13.04,-42.96 -3.87,-13.54 -7.23,-26.07 -10.63,-37.67l-0.96 0c-4.34,20.76 -9.67,41.53 -16.43,62.3 -7.23,23.16 -14.5,47.33 -22.2,71.47 -6.78,24.63 -14.05,47.33 -21.28,67.6zm412.41 -206.21c-15.94,0.46 -31.39,-5.8 -42.96,-16.9 -11.1,-12.07 -16.89,-27.99 -16.43,-44.43 -0.46,-16.43 5.8,-31.86 17.4,-42.96 11.6,-11.1 27.04,-16.9 42.96,-16.9 18.84,0 33.34,5.8 43.93,16.9 10.64,11.6 16.43,27.03 15.94,42.96 0.47,16.43 -5.3,32.36 -16.9,44.43 -11.11,11.61 -27.51,17.87 -43.94,16.9l0 0zm-54.11 419.17l0 -371.84c0,-4.84 1.93,-6.76 6.26,-6.76l95.61 0c4.34,0 6.26,2.4 6.26,6.76l0.02 371.84c0,5.31 -1.93,7.74 -6.27,7.74l-94.63 0c-4.8,0 -7.25,-2.91 -7.25,-7.74z"/>
 </g>
</svg>
