<?xml version="1.0" encoding="UTF-8"?>
<!DOCTYPE svg PUBLIC "-//W3C//DTD SVG 1.1//EN" "http://www.w3.org/Graphics/SVG/1.1/DTD/svg11.dtd">
<!-- Creator: CorelDRAW 2019 (64-Bit) -->
<svg xmlns="http://www.w3.org/2000/svg" xml:space="preserve" width="10.867mm" height="12.171mm" version="1.1" style="shape-rendering:geometricPrecision; text-rendering:geometricPrecision; image-rendering:optimizeQuality; fill-rule:evenodd; clip-rule:evenodd"
viewBox="0 0 1086.7 1217.1"
 xmlns:xlink="http://www.w3.org/1999/xlink"
 xmlns:xodm="http://www.corel.com/coreldraw/odm/2003">
 <defs>
  <style type="text/css">
   <![CDATA[
    .fil0 {fill:#FEFEFE;fill-rule:nonzero}
   ]]>
  </style>
 </defs>
 <g id="Capa_x0020_1">
  <metadata id="CorelCorpID_0Corel-Layer"/>
  <path class="fil0" d="M1079.77 8.61c-5.03,-5.48 -12.1,-8.6 -19.53,-8.6l-1033.78 0c-7.43,0 -14.5,3.12 -19.53,8.6 -5.03,5.48 -7.48,12.83 -6.82,20.21l93.13 1043.17c0.98,10.9 8.57,20.08 19.1,23.1l423.6 120.99c2.36,0.67 4.82,1.01 7.25,1.01 2.43,0 4.89,-0.34 7.25,-1.01l423.97 -120.99c10.53,-3.02 18.12,-12.2 19.1,-23.1l93.08 -1043.17c0.66,-7.38 -1.82,-14.74 -6.82,-20.21zm-880.38 705.88l185.21 51.38 0 -527.74 105.83 0 0 687.92 -291.04 -80.72 0 -130.84zm689.35 -185.32l-27.89 324.12 -264.58 72.76 0 -121.73 178.59 -49.08 6.61 -99.22 -185.2 31.91 0 -449.8 317.5 0 -9.13 105.83 -202.54 0.01 0 211.67 186.64 -26.47z"/>
 </g>
</svg>
