<?xml version="1.0" encoding="UTF-8"?>
<!DOCTYPE svg PUBLIC "-//W3C//DTD SVG 1.1//EN" "http://www.w3.org/Graphics/SVG/1.1/DTD/svg11.dtd">
<!-- Creator: CorelDRAW 2019 (64-Bit) -->
<svg xmlns="http://www.w3.org/2000/svg" xml:space="preserve" width="12mm" height="12mm" version="1.1" style="shape-rendering:geometricPrecision; text-rendering:geometricPrecision; image-rendering:optimizeQuality; fill-rule:evenodd; clip-rule:evenodd"
viewBox="0 0 1200 1200"
 xmlns:xlink="http://www.w3.org/1999/xlink"
 xmlns:xodm="http://www.corel.com/coreldraw/odm/2003">
 <defs>
  <style type="text/css">
   <![CDATA[
    .fil0 {fill:white;fill-rule:nonzero}
   ]]>
  </style>
 </defs>
 <g id="Capa_x0020_1">
  <metadata id="CorelCorpID_0Corel-Layer"/>
  <path class="fil0" d="M1090.91 0l-981.82 0c-60.27,0 -109.09,48.82 -109.09,109.09l0 981.82c0,60.27 48.82,109.09 109.09,109.09l981.82 0c60.27,0 109.09,-48.82 109.09,-109.09l0 -981.82c0,-60.27 -48.82,-109.09 -109.09,-109.09zm-711.6 981.82l-160.91 0 0 -517.75 160.91 0 0 517.75zm-82.09 -591.77c-51.87,0 -93.83,-42.06 -93.83,-93.82 0,-51.77 42.01,-93.76 93.83,-93.76 51.71,0 93.76,42.05 93.76,93.76 0,51.77 -42.06,93.82 -93.76,93.82zm684.82 591.77l-160.8 0 0 -251.78c0,-60.05 -1.1,-137.29 -83.62,-137.29 -83.73,0 -96.61,65.41 -96.61,132.93l0 256.14 -160.8 0 0 -517.75 154.37 0 0 70.74 2.19 0c21.49,-40.69 73.97,-83.61 152.23,-83.61 162.93,0 193.04,107.23 193.04,246.65l0 283.97z"/>
 </g>
</svg>
