<?xml version="1.0" encoding="UTF-8"?>
<!DOCTYPE svg PUBLIC "-//W3C//DTD SVG 1.1//EN" "http://www.w3.org/Graphics/SVG/1.1/DTD/svg11.dtd">
<!-- Creator: CorelDRAW 2019 (64-Bit) -->
<svg xmlns="http://www.w3.org/2000/svg" xml:space="preserve" width="12mm" height="12mm" version="1.1" style="shape-rendering:geometricPrecision; text-rendering:geometricPrecision; image-rendering:optimizeQuality; fill-rule:evenodd; clip-rule:evenodd"
viewBox="0 0 1200 1200"
 xmlns:xlink="http://www.w3.org/1999/xlink"
 xmlns:xodm="http://www.corel.com/coreldraw/odm/2003">
 <defs>
  <style type="text/css">
   <![CDATA[
    .fil0 {fill:#FEFEFE}
   ]]>
  </style>
 </defs>
 <g id="Capa_x0020_1">
  <metadata id="CorelCorpID_0Corel-Layer"/>
  <path class="fil0" d="M1200 1033.34c0,92.06 -74.6,166.66 -166.66,166.66l-866.68 0c-92.03,0 -166.66,-74.6 -166.66,-166.66l0 -866.68c0,-92.06 74.63,-166.66 166.66,-166.66l866.68 0c92.06,0 166.66,74.6 166.66,166.66l0 866.68zm-930 -197.84l0 -514.5c0,-3.51 1.5,-5.51 5,-5.51 8.5,0 16.5,0 28,-0.5 12.01,-0.51 24.51,-0.51 38,-1 13.51,-0.5 28.01,-0.5 43.5,-0.99 15.5,-0.5 30.5,-0.5 45.5,-0.5 40.99,0 75,5.01 103,15.5 25,8.5 48,22.5 67,41 16,16 28.5,35.5 36.5,56.99 7.49,21 11.5,42.5 11.5,65 0,42.99 -10,78.5 -30,106.49 -20,28.01 -48,49 -80.5,61 -34,12.5 -71.5,17 -112.5,17 -12.01,0 -20.01,0 -25,-0.51 -5,-0.5 -12.01,-0.5 -21.51,-0.5l0 160.5c0.51,3.51 -2,6.5 -5.5,7.01 -0.5,0 -1,0 -2,0l-94.98 0.02c-4.01,0 -6.01,-2 -6.01,-6.5zm109 -423.51l0 168c7,0.51 13.5,1 19.5,1l26.5 0.01c19.5,0 39,-3 57.49,-8.99 16,-4.5 30,-14 41,-26.5 10.49,-12.5 15.5,-29.5 15.5,-51.5 0.5,-15.5 -3.51,-31.01 -11.51,-44.5 -8.5,-13 -20.49,-23 -34.99,-28.5 -18.5,-7.49 -38.51,-10.49 -59,-10 -13,0 -24.51,0 -34.01,0.5 -9.97,-0.51 -16.98,-0.01 -20.48,0.48l0 0zm581 137.52c-15,-8 -31,-13.51 -48,-17 -18.49,-4.01 -37,-6.5 -56,-6.5 -10,-0.5 -20.5,0.99 -30,3.5 -6.5,1.5 -12,5 -15.49,10 -2.5,4.01 -4.01,9 -4.01,13.51 0,4.5 2,9 5,13 4.5,5.51 10.5,10.01 17,13.51 11.5,5.99 23.49,11.5 35.5,16.5 27,9 53,21.51 77,36.5 16.51,10.49 30,24.5 39.5,41.5 8,16 12,33.5 11.5,51.5 0.5,23.5 -6.5,47.01 -19.5,66.5 -14,20 -33.5,35.5 -56,44.49 -24.51,10.5 -54.5,16 -90.5,16 -23,0 -45.5,-2 -67.99,-6.5 -17.5,-3 -35,-8.5 -51,-16 -3.5,-2 -6,-5.5 -5.5,-9.5l0 -87c0,-1.5 0.5,-3.5 2,-4.5 1.5,-0.99 3,-0.5 4.5,0.5 19.5,11.51 40,19.51 61.99,24.51 19,5 39.01,7.49 59,7.49 19,0 32.51,-2.49 41.5,-7 8,-3.5 13.51,-12.01 13.51,-21 0,-7.01 -4.01,-13.51 -12.01,-20.01 -8,-6.5 -24.5,-14 -49,-23.49 -25.49,-9 -48.99,-21.01 -71,-36.01 -15.5,-11 -28.5,-25.5 -38,-42.5 -8,-16 -12,-33.49 -11.5,-50.99 0,-21.51 6,-42.01 17,-60.5 12.49,-20.01 31,-36.01 52.49,-46 23.5,-12 53.01,-17.5 88.51,-17.5 20.5,0 41.5,1.5 61.99,4.5 15.01,2 29.51,6 43,11.5 2.01,0.51 4.01,2.5 5,4.5 0.51,2 1,4.01 1,6l0 81.5c0,2 -1,4 -2.49,5 -4.5,0.98 -7,0.98 -9,-0.01z"/>
 </g>
</svg>
