<?xml version="1.0" encoding="UTF-8"?>
<!DOCTYPE svg PUBLIC "-//W3C//DTD SVG 1.1//EN" "http://www.w3.org/Graphics/SVG/1.1/DTD/svg11.dtd">
<!-- Creator: CorelDRAW 2019 (64-Bit) -->
<svg xmlns="http://www.w3.org/2000/svg" xml:space="preserve" width="12mm" height="12mm" version="1.1" style="shape-rendering:geometricPrecision; text-rendering:geometricPrecision; image-rendering:optimizeQuality; fill-rule:evenodd; clip-rule:evenodd"
viewBox="0 0 1200 1200"
 xmlns:xlink="http://www.w3.org/1999/xlink"
 xmlns:xodm="http://www.corel.com/coreldraw/odm/2003">
 <defs>
  <style type="text/css">
   <![CDATA[
    .fil0 {fill:#FEFEFE}
   ]]>
  </style>
 </defs>
 <g id="Capa_x0020_1">
  <metadata id="CorelCorpID_0Corel-Layer"/>
  <path class="fil0" d="M200 0l800 0c110.46,0 200,89.54 200,200l0 800c0,110.46 -89.54,200 -200,200l-800 0c-110.46,0 -200,-89.54 -200,-200l0 -800c0,-110.46 89.54,-200 200,-200zm99.99 320.24c0,-8.67 6.4,-15.86 15.03,-16.61 18.23,-1.53 55.07,-3.62 120.94,-3.62 119.59,0 203.36,47.43 203.36,177.23 0,117.07 -79.7,185.76 -208.3,185.76 -7.5,0 -15.01,0 -40.53,0l0 185.37c0,9.19 -7.47,16.66 -16.67,16.66l-57.16 0c-9.2,0 -16.67,-7.47 -16.67,-16.66l0 -528.13zm90.51 243.73c0,9.17 7.33,16.6 16.5,16.67 11.97,0.06 26.94,0.16 31.97,0.16 73.43,0 106.83,-43.53 106.83,-101.87 0,-54.64 -32.46,-97.24 -100.33,-97.24 -14.5,0 -28.74,0.43 -39.11,0.84 -8.93,0.36 -15.86,7.73 -15.86,16.66l0 164.78zm516.4 11.6c-11.44,-8.14 -24.77,-12.19 -40,-12.19 -20.64,0 -36.8,9.9 -48.41,29.73 -11.66,19.83 -17.43,46.8 -17.43,80.93l0 175.94c0,9.19 -7.47,16.67 -16.67,16.67l-61.72 -0.02c-9.2,0 -16.67,-7.47 -16.67,-16.66l0 -370.01c0,-9.19 7.47,-16.67 16.67,-16.67l61.73 0c9.2,0 16.67,7.48 16.67,16.67l0 58.17 1.2 0c15.03,-54.6 42.1,-81.93 81.23,-81.93 10.01,0 17.84,1.56 23.44,4.74l0 114.63 -0.04 0z"/>
 </g>
</svg>
