<?xml version="1.0" encoding="UTF-8"?>
<!DOCTYPE svg PUBLIC "-//W3C//DTD SVG 1.1//EN" "http://www.w3.org/Graphics/SVG/1.1/DTD/svg11.dtd">
<!-- Creator: CorelDRAW 2019 (64-Bit) -->
<svg xmlns="http://www.w3.org/2000/svg" xml:space="preserve" width="11.092mm" height="12.171mm" version="1.1" style="shape-rendering:geometricPrecision; text-rendering:geometricPrecision; image-rendering:optimizeQuality; fill-rule:evenodd; clip-rule:evenodd"
viewBox="0 0 1109.2 1217.1"
 xmlns:xlink="http://www.w3.org/1999/xlink"
 xmlns:xodm="http://www.corel.com/coreldraw/odm/2003">
 <defs>
  <style type="text/css">
   <![CDATA[
    .fil0 {fill:#FEFEFE;fill-rule:nonzero}
   ]]>
  </style>
 </defs>
 <g id="Capa_x0020_1">
  <metadata id="CorelCorpID_0Corel-Layer"/>
  <path class="fil0" d="M350.72 109.6c-28.22,0 -54.43,6.32 -77.62,19.69 -72.51,41.87 -100.11,143.88 -85.49,270.89 -117.28,50.85 -191.82,125.71 -191.82,209.42 0,83.71 74.54,158.57 191.82,209.42 -14.62,127.01 12.98,229.02 85.49,270.89 23.16,13.37 49.34,19.69 77.62,19.69 60.22,0 129.79,-30.22 199.68,-82.06 69.89,51.84 139.55,82.06 199.76,82.06 28.25,0 54.43,-6.32 77.63,-19.69 72.51,-41.87 100.11,-143.88 85.49,-270.89 117.24,-50.85 191.73,-125.73 191.73,-209.42 0,-83.71 -74.54,-158.57 -191.82,-209.42 14.62,-127.01 -12.98,-229.02 -85.49,-270.89 -23.16,-13.4 -49.34,-19.69 -77.62,-19.69 -60.22,0 -129.79,30.22 -199.68,82.06 -69.89,-51.84 -139.48,-82.06 -199.68,-82.06zm0 80.89c36.13,0 83.9,19.2 135.77,54.78 -30.49,28.79 -60.36,61.51 -89.09,97.95 -46.61,6.69 -90.55,16.43 -131.25,28.61 -0.21,-2.81 -0.74,-5.78 -0.91,-8.56 -4.95,-82.28 13.13,-143.61 48.3,-163.94 10.39,-6.01 22.53,-8.84 37.18,-8.84zm399.36 0c14.6,0 26.79,2.83 37.18,8.84 35.17,20.3 53.25,81.66 48.3,163.94 -0.17,2.78 -0.7,5.75 -0.91,8.56 -40.73,-12.2 -84.7,-21.92 -131.34,-28.61 -28.73,-36.43 -58.51,-69.16 -89,-97.95 51.87,-35.56 99.66,-54.78 135.77,-54.78zm-199.68 106.16c12.52,11.4 24.96,23.46 37.56,36.64 -12.48,-0.42 -24.88,-0.99 -37.56,-0.99 -12.65,0 -25.01,0.57 -37.47,0.99 12.58,-13.18 24.95,-25.26 37.47,-36.64zm0 116.52c38.31,0 74.61,2.15 109.05,5.87 21,28.56 41.7,58.75 61.1,92.36 18.61,32.21 35.05,65.19 49.56,98.2 -14.51,33.05 -30.95,66.06 -49.56,98.31 -19.33,33.5 -40,63.49 -60.92,91.97 -35.67,3.91 -72.25,6.15 -109.23,6.15 -38.31,0 -74.61,-2.15 -109.05,-5.87 -21,-28.56 -41.7,-58.64 -61.1,-92.25 -18.61,-32.25 -35.05,-65.26 -49.56,-98.31 14.5,-33.01 30.95,-65.99 49.56,-98.2 19.35,-33.53 39.98,-63.6 60.92,-92.08 35.67,-3.91 72.25,-6.15 109.23,-6.15zm219.34 25.02c18.35,4.42 35.97,9.2 52.55,14.53 -3.76,16.96 -8.35,34.26 -13.54,51.72 -5.96,-11.16 -11.72,-22.36 -18.15,-33.5 -6.62,-11.44 -13.96,-21.73 -20.86,-32.75zm-438.79 0.09c-6.86,10.98 -14.17,21.25 -20.75,32.66 -6.43,11.14 -12.19,22.34 -18.15,33.5 -5.21,-17.5 -9.87,-34.81 -13.62,-51.82 16.87,-5.33 34.46,-10.05 52.52,-14.34zm-128.61 44.05c9.72,41.1 23.23,83.72 40.61,127.18 -17.35,43.34 -30.8,85.89 -40.53,126.92 -80.49,-38.86 -125.75,-87.25 -125.75,-126.83 0,-40.63 44,-86.92 117.72,-123.76 2.51,-1.26 5.36,-2.29 7.95,-3.51zm696.04 0.44c80.49,38.86 125.75,87.25 125.75,126.83 0,40.63 -44,86.92 -117.72,123.76 -2.51,1.26 -5.36,2.29 -7.95,3.51 -9.72,-41.14 -23.12,-83.79 -40.52,-127.27 17.33,-43.3 30.71,-85.84 40.44,-126.83zm-347.98 34.39c-51.08,0 -92.44,41.36 -92.44,92.44 0,51.08 41.36,92.44 92.44,92.44 51.08,0 92.44,-41.36 92.44,-92.44 0,-51.08 -41.36,-92.44 -92.44,-92.44zm-258.35 197.6c5.96,11.16 11.81,22.36 18.24,33.5 6.6,11.44 13.87,21.75 20.77,32.75 -18.35,-4.42 -35.97,-9.2 -52.55,-14.53 3.76,-16.96 8.35,-34.24 13.54,-51.72zm516.7 0.08c5.21,17.51 9.87,34.75 13.62,51.74 -16.87,5.33 -34.46,10.05 -52.52,14.34 6.86,-10.98 14.17,-21.25 20.75,-32.66 6.41,-11.13 12.21,-22.27 18.15,-33.42zm-542.6 132.53c40.73,12.2 84.7,21.92 131.34,28.61 28.73,36.44 58.5,69.25 89,98.03 -51.87,35.57 -99.64,54.8 -135.77,54.8 -14.6,0 -26.79,-2.93 -37.18,-8.94 -35.17,-20.3 -53.25,-81.58 -48.3,-163.83 0.17,-2.83 0.68,-5.82 0.91,-8.67zm568.5 0c0.23,2.85 0.74,5.84 0.91,8.67 4.95,82.25 -13.13,143.5 -48.3,163.83 -10.39,6.01 -22.53,8.94 -37.18,8.94 -36.13,0 -83.9,-19.21 -135.77,-54.8 30.5,-28.78 60.34,-61.57 89.09,-98.03 46.61,-6.69 90.55,-16.43 131.25,-28.61zm-321.81 38.54c12.48,0.42 24.88,0.99 37.56,0.99 12.68,0 25.08,-0.57 37.56,-0.99 -12.6,13.18 -25.04,25.24 -37.56,36.64 -12.52,-11.4 -24.96,-23.46 -37.56,-36.64z"/>
 </g>
</svg>
