<?xml version="1.0" encoding="UTF-8"?>
<!DOCTYPE svg PUBLIC "-//W3C//DTD SVG 1.1//EN" "http://www.w3.org/Graphics/SVG/1.1/DTD/svg11.dtd">
<!-- Creator: CorelDRAW 2019 (64-Bit) -->
<svg xmlns="http://www.w3.org/2000/svg" xml:space="preserve" width="12.7mm" height="12.171mm" version="1.1" style="shape-rendering:geometricPrecision; text-rendering:geometricPrecision; image-rendering:optimizeQuality; fill-rule:evenodd; clip-rule:evenodd"
viewBox="0 0 1270 1217.1"
 xmlns:xlink="http://www.w3.org/1999/xlink"
 xmlns:xodm="http://www.corel.com/coreldraw/odm/2003">
 <defs>
  <style type="text/css">
   <![CDATA[
    .fil0 {fill:#FEFEFE;fill-rule:nonzero}
   ]]>
  </style>
 </defs>
 <g id="Capa_x0020_1">
  <metadata id="CorelCorpID_0Corel-Layer"/>
  <path class="fil0" d="M635 228.7c-169.33,0 -275.17,84.64 -317.5,253.92 63.5,-84.64 137.58,-116.36 222.25,-95.22 48.31,12.07 82.84,47.12 121.07,85.91 62.23,63.15 134.28,136.28 291.68,136.28 169.33,0 275.17,-84.64 317.5,-253.95 -63.5,84.64 -137.58,116.39 -222.25,95.25 -48.29,-12.07 -82.81,-47.12 -121.05,-85.91 -62.25,-63.18 -134.33,-136.28 -291.7,-136.28l0 0zm-317.5 380.89c-169.33,0 -275.17,84.64 -317.5,253.95 63.5,-84.64 137.58,-116.39 222.25,-95.22 48.29,12.09 82.81,47.12 121.05,85.88 62.26,63.18 134.33,136.31 291.7,136.31 169.33,0 275.17,-84.64 317.5,-253.95 -63.5,84.64 -137.58,116.39 -222.25,95.22 -48.31,-12.07 -82.84,-47.12 -121.07,-85.88 -62.23,-63.18 -134.28,-136.31 -291.68,-136.31l0 0z"/>
 </g>
</svg>
