<?xml version="1.0" encoding="UTF-8"?>
<!DOCTYPE svg PUBLIC "-//W3C//DTD SVG 1.1//EN" "http://www.w3.org/Graphics/SVG/1.1/DTD/svg11.dtd">
<!-- Creator: CorelDRAW 2019 (64-Bit) -->
<svg xmlns="http://www.w3.org/2000/svg" xml:space="preserve" width="11.171mm" height="11.171mm" version="1.1" style="shape-rendering:geometricPrecision; text-rendering:geometricPrecision; image-rendering:optimizeQuality; fill-rule:evenodd; clip-rule:evenodd"
viewBox="0 0 1117.1 1117.1"
 xmlns:xlink="http://www.w3.org/1999/xlink"
 xmlns:xodm="http://www.corel.com/coreldraw/odm/2003">
 <defs>
  <style type="text/css">
   <![CDATA[
    .fil0 {fill:#FEFEFE;fill-rule:nonzero}
   ]]>
  </style>
 </defs>
 <g id="Capa_x0020_1">
  <metadata id="CorelCorpID_0Corel-Layer"/>
  <path class="fil0" d="M109.09 0l898.92 0c60.24,0 109.09,48.85 109.09,109.09l0 898.92c0,60.24 -48.85,109.09 -109.09,109.09l-898.92 0c-60.24,0 -109.09,-48.85 -109.09,-109.09l0 -898.92c0,-60.24 48.85,-109.09 109.09,-109.09l0 0zm582.42 888.93l0 109.23c17.75,9.1 38.75,15.93 63,20.48 24.24,4.55 49.79,6.82 76.66,6.82 26.18,0 51.05,-2.5 74.61,-7.51 23.56,-5 44.22,-13.25 61.97,-24.74 17.76,-11.49 31.82,-26.51 42.18,-45.06 10.35,-18.54 15.53,-41.47 15.53,-68.77 0,-19.8 -2.96,-37.15 -8.88,-52.06 -5.92,-14.9 -14.45,-28.15 -25.61,-39.76 -11.15,-11.6 -24.52,-22.02 -40.12,-31.23 -15.59,-9.22 -33.18,-17.92 -52.75,-26.11 -14.35,-5.92 -27.21,-11.66 -38.59,-17.24 -11.38,-5.58 -21.06,-11.26 -29.03,-17.07 -7.96,-5.8 -14.11,-11.94 -18.44,-18.43 -4.32,-6.48 -6.48,-13.82 -6.48,-22.01 0,-7.51 1.93,-14.28 5.8,-20.31 3.87,-6.03 9.34,-11.21 16.39,-15.53 7.06,-4.32 15.71,-7.68 25.95,-10.07 10.25,-2.39 21.63,-3.58 34.15,-3.58 9.11,0 18.72,0.68 28.85,2.04 10.14,1.37 20.32,3.47 30.57,6.32 10.24,2.84 20.2,6.43 29.88,10.75 9.67,4.32 18.6,9.33 26.8,15.02l0 -102.06c-16.62,-6.37 -34.77,-11.09 -54.46,-14.16 -19.69,-3.08 -42.29,-4.61 -67.78,-4.61 -25.96,0 -50.54,2.79 -73.76,8.36 -23.22,5.58 -43.65,14.28 -61.29,26.11 -17.65,11.84 -31.59,26.91 -41.83,45.23 -10.25,18.31 -15.37,40.22 -15.37,65.7 0,32.54 9.39,60.3 28.17,83.29 18.78,22.98 47.29,42.43 85.54,58.36 15.02,6.15 29.02,12.18 42,18.09 12.97,5.92 24.19,12.06 33.63,18.44 9.45,6.37 16.91,13.31 22.37,20.82 5.46,7.5 8.2,16.04 8.2,25.6 0,7.05 -1.71,13.59 -5.13,19.62 -3.41,6.03 -8.59,11.26 -15.53,15.7 -6.95,4.44 -15.6,7.91 -25.95,10.41 -10.36,2.51 -22.48,3.76 -36.37,3.76 -23.68,0 -47.12,-4.16 -70.34,-12.46 -23.22,-8.31 -44.74,-20.77 -64.54,-37.38l0 0zm-183.62 -269.11l140.11 0 0 -89.63 -390.54 0 0 89.63 139.43 0 0 399.1 111 0 0 -399.1z"/>
 </g>
</svg>
